CATALOG 0000000000000
FILE "PriKura (Princess Kurara) Daisakusen (Japan) (Track 01).bin" BINARY
  TRACK 01 MODE1/2352
    INDEX 01 00:00:00
FILE "PriKura (Princess Kurara) Daisakusen (Japan) (Track 02).bin" BINARY
  TRACK 02 AUDIO
    INDEX 00 00:00:00
    INDEX 01 00:02:00
FILE "PriKura (Princess Kurara) Daisakusen (Japan) (Track 03).bin" BINARY
  TRACK 03 AUDIO
    INDEX 00 00:00:00
    INDEX 01 00:01:74
FILE "PriKura (Princess Kurara) Daisakusen (Japan) (Track 04).bin" BINARY
  TRACK 04 AUDIO
    INDEX 00 00:00:00
    INDEX 01 00:01:74
FILE "PriKura (Princess Kurara) Daisakusen (Japan) (Track 05).bin" BINARY
  TRACK 05 AUDIO
    INDEX 00 00:00:00
    INDEX 01 00:01:74
FILE "PriKura (Princess Kurara) Daisakusen (Japan) (Track 06).bin" BINARY
  TRACK 06 AUDIO
    INDEX 00 00:00:00
    INDEX 01 00:01:74
FILE "PriKura (Princess Kurara) Daisakusen (Japan) (Track 07).bin" BINARY
  TRACK 07 AUDIO
    INDEX 00 00:00:00
    INDEX 01 00:01:74
FILE "PriKura (Princess Kurara) Daisakusen (Japan) (Track 08).bin" BINARY
  TRACK 08 AUDIO
    INDEX 00 00:00:00
    INDEX 01 00:01:74
FILE "PriKura (Princess Kurara) Daisakusen (Japan) (Track 09).bin" BINARY
  TRACK 09 AUDIO
    INDEX 00 00:00:00
    INDEX 01 00:01:74
FILE "PriKura (Princess Kurara) Daisakusen (Japan) (Track 10).bin" BINARY
  TRACK 10 AUDIO
    INDEX 00 00:00:00
    INDEX 01 00:01:74
FILE "PriKura (Princess Kurara) Daisakusen (Japan) (Track 11).bin" BINARY
  TRACK 11 AUDIO
    INDEX 00 00:00:00
    INDEX 01 00:01:74
FILE "PriKura (Princess Kurara) Daisakusen (Japan) (Track 12).bin" BINARY
  TRACK 12 AUDIO
    INDEX 00 00:00:00
    INDEX 01 00:01:74
FILE "PriKura (Princess Kurara) Daisakusen (Japan) (Track 13).bin" BINARY
  TRACK 13 AUDIO
    INDEX 00 00:00:00
    INDEX 01 00:01:74
FILE "PriKura (Princess Kurara) Daisakusen (Japan) (Track 14).bin" BINARY
  TRACK 14 AUDIO
    INDEX 00 00:00:00
    INDEX 01 00:01:74
FILE "PriKura (Princess Kurara) Daisakusen (Japan) (Track 15).bin" BINARY
  TRACK 15 AUDIO
    INDEX 00 00:00:00
    INDEX 01 00:01:74
FILE "PriKura (Princess Kurara) Daisakusen (Japan) (Track 16).bin" BINARY
  TRACK 16 AUDIO
    INDEX 00 00:00:00
    INDEX 01 00:01:74
FILE "PriKura (Princess Kurara) Daisakusen (Japan) (Track 17).bin" BINARY
  TRACK 17 AUDIO
    INDEX 00 00:00:00
    INDEX 01 00:01:74
FILE "PriKura (Princess Kurara) Daisakusen (Japan) (Track 18).bin" BINARY
  TRACK 18 AUDIO
    INDEX 00 00:00:00
    INDEX 01 00:01:74
FILE "PriKura (Princess Kurara) Daisakusen (Japan) (Track 19).bin" BINARY
  TRACK 19 AUDIO
    INDEX 00 00:00:00
    INDEX 01 00:01:74
FILE "PriKura (Princess Kurara) Daisakusen (Japan) (Track 20).bin" BINARY
  TRACK 20 AUDIO
    INDEX 00 00:00:00
    INDEX 01 00:01:74
FILE "PriKura (Princess Kurara) Daisakusen (Japan) (Track 21).bin" BINARY
  TRACK 21 AUDIO
    INDEX 00 00:00:00
    INDEX 01 00:01:74
FILE "PriKura (Princess Kurara) Daisakusen (Japan) (Track 22).bin" BINARY
  TRACK 22 AUDIO
    INDEX 00 00:00:00
    INDEX 01 00:01:74
FILE "PriKura (Princess Kurara) Daisakusen (Japan) (Track 23).bin" BINARY
  TRACK 23 AUDIO
    INDEX 00 00:00:00
    INDEX 01 00:01:74
FILE "PriKura (Princess Kurara) Daisakusen (Japan) (Track 24).bin" BINARY
  TRACK 24 AUDIO
    INDEX 00 00:00:00
    INDEX 01 00:01:74
    INDEX 02 00:04:52
    INDEX 03 00:07:57
    INDEX 04 00:12:10
    INDEX 05 00:15:34
    INDEX 06 00:18:57
    INDEX 07 00:22:05
    INDEX 08 00:25:27
    INDEX 09 00:29:55
    INDEX 10 00:32:60
FILE "PriKura (Princess Kurara) Daisakusen (Japan) (Track 25).bin" BINARY
  TRACK 25 AUDIO
    INDEX 00 00:00:00
    INDEX 01 00:01:74
    INDEX 02 00:06:73
    INDEX 03 00:16:27
    INDEX 04 00:20:37
    INDEX 05 00:32:25
    INDEX 06 00:36:53
    INDEX 07 00:40:21
    INDEX 08 00:45:15
    INDEX 09 00:49:50
    INDEX 10 00:54:19
    INDEX 11 00:57:42
    INDEX 12 01:00:55
    INDEX 13 01:10:03
    INDEX 14 01:13:36
    INDEX 15 01:16:69
    INDEX 16 01:22:26
FILE "PriKura (Princess Kurara) Daisakusen (Japan) (Track 26).bin" BINARY
  TRACK 26 AUDIO
    INDEX 00 00:00:00
    INDEX 01 00:01:74
    INDEX 02 00:07:65
    INDEX 03 00:17:62
    INDEX 04 00:27:24
    INDEX 05 00:33:42
    INDEX 06 00:40:52
    INDEX 07 00:45:47
    INDEX 08 00:49:22
    INDEX 09 00:55:06
    INDEX 10 00:59:10
    INDEX 11 01:02:73
    INDEX 12 01:07:56
    INDEX 13 01:13:29
    INDEX 14 01:20:22
FILE "PriKura (Princess Kurara) Daisakusen (Japan) (Track 27).bin" BINARY
  TRACK 27 AUDIO
    INDEX 00 00:00:00
    INDEX 01 00:01:74
    INDEX 02 00:08:16
    INDEX 03 00:12:45
    INDEX 04 00:18:22
    INDEX 05 00:21:18
    INDEX 06 00:26:37
    INDEX 07 00:30:32
    INDEX 08 00:33:35
    INDEX 09 00:37:47
FILE "PriKura (Princess Kurara) Daisakusen (Japan) (Track 28).bin" BINARY
  TRACK 28 AUDIO
    INDEX 00 00:00:00
    INDEX 01 00:01:74
    INDEX 02 00:05:29
    INDEX 03 00:12:41
    INDEX 04 00:15:64
    INDEX 05 00:24:67
    INDEX 06 00:28:61
    INDEX 07 00:32:60
    INDEX 08 00:35:70
    INDEX 09 00:43:46
    INDEX 10 00:47:74
    INDEX 11 00:53:61
    INDEX 12 00:59:33
    INDEX 13 01:05:67
    INDEX 14 01:11:20
    INDEX 15 01:18:56
    INDEX 16 01:21:69
    INDEX 17 01:26:66
    INDEX 18 01:31:26
    INDEX 19 01:38:23
    INDEX 20 01:42:32
    INDEX 21 01:48:05
    INDEX 22 01:52:66
    INDEX 23 01:58:45
FILE "PriKura (Princess Kurara) Daisakusen (Japan) (Track 29).bin" BINARY
  TRACK 29 AUDIO
    INDEX 00 00:00:00
    INDEX 01 00:01:74
    INDEX 02 00:09:26
    INDEX 03 00:14:08
    INDEX 04 00:22:30
    INDEX 05 00:24:60
    INDEX 06 00:30:09
    INDEX 07 00:35:15
    INDEX 08 00:42:15
FILE "PriKura (Princess Kurara) Daisakusen (Japan) (Track 30).bin" BINARY
  TRACK 30 AUDIO
    INDEX 00 00:00:00
    INDEX 01 00:01:74
    INDEX 02 00:10:04
    INDEX 03 00:16:14
    INDEX 04 00:20:48
    INDEX 05 00:29:04
    INDEX 06 00:34:27
    INDEX 07 00:42:20
FILE "PriKura (Princess Kurara) Daisakusen (Japan) (Track 31).bin" BINARY
  TRACK 31 AUDIO
    INDEX 00 00:00:00
    INDEX 01 00:01:74
    INDEX 02 00:10:67
    INDEX 03 00:16:40
    INDEX 04 00:19:56
    INDEX 05 00:27:27
    INDEX 06 00:30:56
FILE "PriKura (Princess Kurara) Daisakusen (Japan) (Track 32).bin" BINARY
  TRACK 32 AUDIO
    INDEX 00 00:00:00
    INDEX 01 00:01:74
    INDEX 02 00:11:35
    INDEX 03 00:15:36
    INDEX 04 00:25:65
    INDEX 05 00:31:69
    INDEX 06 00:35:40
    INDEX 07 00:42:67
